<svg width="400" height="400" viewBox="0 0 400 401" fill="none" xmlns="http://www.w3.org/2000/svg">
<g id="logo">
<g id="management-system">
<path id="0" d="M0 384.472H4.41614L10.0713 396.726L15.7127 384.472H20.116V400.46H16.7229V395.189L17.0593 388.14L11.2695 400.46H8.83275L3.05623 388.151L3.39311 395.189V400.46H0V384.472Z" fill="black"/>
<path id="2" d="M43.5843 400.46L41.9822 396.737H34.3881L32.7993 400.46H29.2582L36.6635 384.472H39.7202L47.1388 400.46H43.5843ZM38.1851 387.865L35.344 394.497H41.0263L38.1851 387.865Z" fill="black"/>
<path id="4" d="M71.7786 384.472V400.46H68.3721L59.6336 389.117V400.46H56.2272V384.472H59.6336L68.3988 395.859V384.472H71.7786Z" fill="black"/>
<path id="6" d="M95.2471 400.46L93.6449 396.737H86.0508L84.462 400.46H80.9209L88.3266 384.472H91.3829L98.8015 400.46H95.2471ZM89.8479 387.865L87.0067 394.497H92.689L89.8479 387.865Z" fill="black"/>
<path id="8" d="M122.916 392.258V398.385C122.394 398.933 121.738 399.386 120.989 399.715C120.66 399.862 120.319 399.99 119.968 400.097C119.187 400.335 118.375 400.498 117.549 400.583C116.931 400.648 116.309 400.681 115.686 400.679C114.856 400.684 114.029 400.597 113.228 400.422C112.56 400.274 111.92 400.054 111.324 399.768C110.073 399.165 109.066 398.277 108.427 397.213C108.416 397.195 108.406 397.178 108.395 397.16C107.976 396.46 107.681 395.714 107.521 394.946C107.398 394.37 107.332 393.787 107.324 393.202V391.95C107.319 391.21 107.396 390.472 107.554 389.743C107.866 388.353 108.499 387.202 109.452 386.29C110.56 385.229 112.109 384.538 113.803 384.351C114.328 384.284 114.858 384.252 115.39 384.253C116.106 384.249 116.821 384.304 117.524 384.416C118.391 384.56 119.161 384.798 119.834 385.131C120.099 385.262 120.35 385.409 120.587 385.571C121.454 386.172 122.104 386.954 122.467 387.834C122.679 388.332 122.825 388.847 122.903 389.37H119.564C119.486 388.932 119.328 388.506 119.095 388.107C118.554 387.212 117.632 386.687 116.33 386.531C116.041 386.498 115.749 386.481 115.457 386.482C113.931 386.482 112.771 386.931 111.976 387.827C111.648 388.207 111.393 388.626 111.221 389.07C111.061 389.466 110.941 389.906 110.861 390.39C110.788 390.849 110.749 391.312 110.745 391.775V393.004C110.741 393.508 110.785 394.012 110.875 394.511C111.067 395.532 111.47 396.372 112.084 397.028C112.453 397.434 112.925 397.769 113.468 398.013C114.01 398.256 114.61 398.402 115.228 398.439C115.42 398.454 115.614 398.462 115.807 398.461C116.247 398.463 116.687 398.439 117.123 398.389C118.188 398.261 118.988 397.963 119.523 397.495V394.366H115.484V392.258H122.916Z" fill="black"/>
<path id="10" d="M144.985 391.126V393.323H136.933V398.242H146.345V400.46H133.526V384.472H146.25V386.712H136.933V391.126H144.985Z" fill="black"/>
<path id="12" d="M155.985 384.472H160.401L166.056 396.726L171.698 384.472H176.101V400.46H172.708V395.189L173.044 388.14L167.255 400.46H164.818L159.042 388.151L159.378 395.189V400.46H155.985V384.472Z" fill="black"/>
<path id="14" d="M198.452 391.126V393.323H190.4V398.242H199.812V400.46H186.993V384.472H199.717V386.712H190.4V391.126H198.452Z" fill="black"/>
<path id="16" d="M225.003 384.472V400.46H221.597L212.858 389.117V400.46H209.452V384.472H212.858L221.624 395.859V384.472H225.003Z" fill="black"/>
<path id="18" d="M249.253 384.472V386.712H243.14V400.46H239.76V386.712H233.701V384.472H249.253Z" fill="black"/>
<path id="21" d="M278.389 389.139H274.996C274.999 388.86 274.958 388.581 274.872 388.31C274.736 387.874 274.444 387.48 274.034 387.179C273.69 386.931 273.283 386.748 272.843 386.643C272.53 386.564 272.187 386.512 271.811 386.488C271.635 386.476 271.457 386.471 271.28 386.471C270.944 386.469 270.608 386.49 270.276 386.532C269.633 386.617 269.104 386.791 268.688 387.053C268.423 387.217 268.205 387.426 268.048 387.666C267.891 387.905 267.799 388.169 267.779 388.44C267.77 388.519 267.766 388.599 267.766 388.678C267.764 388.915 267.824 389.149 267.942 389.366C268.06 389.582 268.233 389.776 268.449 389.933C268.548 390.009 268.653 390.079 268.762 390.144C268.973 390.266 269.195 390.376 269.425 390.472C269.924 390.684 270.553 390.893 271.313 391.098C271.557 391.164 271.802 391.226 272.048 391.286C272.563 391.41 273.073 391.549 273.577 391.704C274.415 391.965 275.131 392.246 275.723 392.548C276.571 392.981 277.211 393.472 277.643 394.022C277.683 394.072 277.72 394.122 277.756 394.173C278.187 394.785 278.403 395.5 278.403 396.32C278.411 396.846 278.297 397.369 278.069 397.861C277.749 398.512 277.215 399.079 276.525 399.499C275.863 399.906 275.112 400.207 274.311 400.384C273.701 400.525 273.033 400.616 272.307 400.656C272.014 400.672 271.721 400.679 271.428 400.679C270.536 400.683 269.647 400.59 268.784 400.403C268.351 400.307 267.927 400.185 267.517 400.037C266.951 399.837 266.419 399.58 265.931 399.272C265.478 398.984 265.078 398.644 264.743 398.263C264.148 397.579 263.807 396.769 263.764 395.93C263.757 395.83 263.753 395.729 263.753 395.628H267.16C267.157 395.93 267.204 396.231 267.301 396.523C267.46 396.999 267.796 397.423 268.264 397.736C268.626 397.976 269.04 398.155 269.485 398.266C269.832 398.356 270.215 398.419 270.634 398.453C270.898 398.473 271.163 398.484 271.428 398.483C271.755 398.484 272.082 398.467 272.406 398.431C273.116 398.35 273.681 398.171 274.101 397.896C274.698 397.504 274.996 396.986 274.996 396.342C274.999 396.107 274.96 395.872 274.879 395.647C274.744 395.276 274.467 394.95 274.088 394.717C273.602 394.412 272.804 394.105 271.694 393.795C271.401 393.714 271.106 393.637 270.809 393.564C270.298 393.44 269.793 393.301 269.294 393.148C268.403 392.874 267.651 392.581 267.039 392.268C266.519 392.008 266.044 391.692 265.626 391.329C264.799 390.617 264.345 389.67 264.36 388.689C264.348 388.144 264.478 387.604 264.743 387.103C265.007 386.603 265.399 386.154 265.892 385.787C266.02 385.688 266.154 385.594 266.292 385.505C267.548 384.691 269.168 384.274 271.154 384.254C271.205 384.254 271.256 384.253 271.307 384.253C271.986 384.25 272.664 384.307 273.328 384.422C273.889 384.52 274.436 384.67 274.956 384.868C275.661 385.132 276.298 385.503 276.835 385.96C277.071 386.164 277.285 386.385 277.474 386.619C278.08 387.366 278.399 388.244 278.389 389.139Z" fill="black"/>
<path id="23" d="M290.144 384.472L294.654 392.049L299.165 384.472H302.935L296.365 394.574V400.46H292.944V394.574L286.36 384.472H290.144Z" fill="black"/>
<path id="25" d="M325.569 389.139H322.176C322.179 388.859 322.137 388.581 322.051 388.31C321.915 387.874 321.623 387.48 321.213 387.179C320.869 386.931 320.462 386.748 320.022 386.643C319.71 386.564 319.366 386.512 318.991 386.488C318.814 386.476 318.637 386.471 318.46 386.471C318.124 386.469 317.788 386.49 317.456 386.532C316.812 386.617 316.283 386.791 315.868 387.053C315.603 387.217 315.384 387.426 315.227 387.666C315.07 387.905 314.979 388.169 314.958 388.44C314.95 388.519 314.945 388.599 314.945 388.678C314.944 388.915 315.004 389.149 315.121 389.366C315.239 389.582 315.412 389.776 315.629 389.933C315.727 390.009 315.832 390.079 315.942 390.144C316.153 390.266 316.374 390.376 316.604 390.472C317.103 390.684 317.733 390.893 318.492 391.098C318.736 391.164 318.981 391.226 319.227 391.286C319.743 391.41 320.253 391.549 320.756 391.704C321.595 391.965 322.311 392.246 322.903 392.548C323.75 392.981 324.39 393.472 324.823 394.022C324.862 394.072 324.9 394.122 324.936 394.173C325.367 394.785 325.582 395.5 325.582 396.32C325.59 396.846 325.477 397.369 325.248 397.861C324.929 398.512 324.394 399.079 323.704 399.499C323.042 399.906 322.291 400.207 321.491 400.384C320.88 400.525 320.212 400.616 319.486 400.656C319.194 400.672 318.901 400.679 318.608 400.679C317.715 400.683 316.826 400.59 315.963 400.403C315.53 400.307 315.107 400.185 314.696 400.037C314.131 399.837 313.598 399.58 313.111 399.272C312.658 398.984 312.257 398.644 311.923 398.263C311.327 397.579 310.987 396.769 310.943 395.93C310.936 395.83 310.933 395.729 310.933 395.628H314.34C314.336 395.93 314.383 396.231 314.481 396.523C314.639 396.999 314.976 397.423 315.443 397.736C315.805 397.976 316.219 398.155 316.665 398.266C317.011 398.356 317.395 398.419 317.814 398.453C318.078 398.473 318.343 398.484 318.608 398.483C318.935 398.484 319.261 398.467 319.585 398.431C320.296 398.35 320.861 398.171 321.28 397.896C321.877 397.504 322.176 396.986 322.176 396.342C322.179 396.107 322.139 395.872 322.058 395.647C321.923 395.276 321.646 394.95 321.267 394.717C320.782 394.412 319.984 394.105 318.873 393.795C318.58 393.714 318.285 393.637 317.988 393.564C317.478 393.44 316.973 393.301 316.474 393.148C315.583 392.874 314.831 392.581 314.218 392.268C313.698 392.008 313.223 391.692 312.805 391.329C311.978 390.617 311.524 389.67 311.539 388.689C311.527 388.144 311.658 387.604 311.922 387.103C312.186 386.603 312.578 386.154 313.072 385.787C313.2 385.688 313.333 385.594 313.471 385.505C314.727 384.691 316.348 384.274 318.334 384.254C318.385 384.254 318.436 384.253 318.486 384.253C319.165 384.25 319.843 384.307 320.507 384.422C321.069 384.52 321.615 384.669 322.135 384.868C322.84 385.133 323.477 385.503 324.014 385.96C324.25 386.164 324.464 386.385 324.653 386.619C325.26 387.366 325.578 388.244 325.569 389.139Z" fill="black"/>
<path id="27" d="M348.795 384.472V386.712H342.682V400.46H339.302V386.712H333.244V384.472H348.795Z" fill="black"/>
<path id="29" d="M368.883 391.126V393.323H360.832V398.242H370.243V400.46H357.425V384.472H370.149V386.712H360.832V391.126H368.883Z" fill="black"/>
<path id="31" d="M379.884 384.472H384.3L389.955 396.726L395.597 384.472H400V400.46H396.607V395.189L396.943 388.14L391.154 400.46H388.717L382.94 388.151L383.277 395.189V400.46H379.884V384.472Z" fill="black"/>
</g>
<g id="safety-surfers">
<path id="Vector" fill-rule="evenodd" clip-rule="evenodd" d="M315.545 370.983H290.771V342.768H315.276V347.786H297.478V354.079H313.219V359.056H297.478V365.924H315.545V370.983ZM9.04472 361.811H15.663C15.6521 361.842 15.6437 361.874 15.6378 361.906C15.6311 361.939 15.6262 361.975 15.6231 362.015C15.6198 362.056 15.6182 362.098 15.6183 362.14V362.511C15.615 362.882 15.6681 363.252 15.7762 363.61C15.9014 364.018 16.1138 364.4 16.4012 364.732C16.706 365.079 17.077 365.372 17.496 365.596C17.8057 365.766 18.1527 365.913 18.5371 366.037C18.5925 366.055 18.6481 366.072 18.7039 366.089C19.24 366.246 19.7899 366.359 20.3474 366.428C20.8626 366.494 21.4093 366.531 21.9873 366.54C22.0704 366.541 22.1535 366.541 22.2366 366.541C22.5965 366.542 22.9564 366.533 23.3157 366.514C23.7544 366.49 24.1625 366.451 24.5399 366.398C24.8593 366.352 25.1764 366.294 25.49 366.222C25.7741 366.158 26.054 366.079 26.3286 365.986C26.8502 365.808 27.2825 365.595 27.6255 365.349C27.8204 365.21 27.9939 365.048 28.141 364.866C28.2366 364.747 28.3186 364.619 28.3857 364.485C28.5046 364.243 28.5806 363.985 28.6109 363.721C28.6247 363.606 28.6316 363.49 28.6314 363.374C28.6344 363.082 28.5876 362.791 28.4925 362.513C28.3667 362.152 28.1456 361.827 27.8491 361.565C27.4029 361.166 26.8153 360.818 26.0861 360.519C25.9594 360.468 25.8316 360.418 25.7026 360.372C24.7931 360.043 23.772 359.741 22.6391 359.467C21.5062 359.193 20.3436 358.912 19.1511 358.624C17.9586 358.336 16.7959 357.98 15.663 357.555C14.912 357.275 14.187 356.94 13.4955 356.552C13.1965 356.383 12.9052 356.203 12.6222 356.012C11.7278 355.409 11.0123 354.641 10.4757 353.709C10.1726 353.174 9.95704 352.6 9.83597 352.007C9.73286 351.522 9.67797 351.002 9.6713 350.447C9.67091 350.41 9.67074 350.373 9.67078 350.336C9.66686 349.737 9.733 349.14 9.86806 348.554C10.0168 347.908 10.2748 347.288 10.6325 346.717C11.2356 345.77 12.0701 344.965 13.0699 344.366C13.1582 344.312 13.2474 344.259 13.3377 344.208C14.1506 343.752 15.0184 343.385 15.9235 343.114C16.3963 342.97 16.8765 342.848 17.3623 342.748C18.353 342.545 19.3584 342.41 20.3706 342.342C21.0213 342.296 21.6736 342.274 22.3261 342.275C23.5338 342.271 24.7397 342.36 25.9314 342.541C26.3119 342.599 26.6903 342.668 27.0662 342.748C27.9137 342.924 28.7398 343.177 29.5321 343.505C30.042 343.718 30.5333 343.967 31.0014 344.249C32.1343 344.934 33.0213 345.798 33.6624 346.84C34.0728 347.517 34.3522 348.254 34.4884 349.019C34.5806 349.522 34.6258 350.032 34.6236 350.542V351.035H28.1395V350.706C28.143 350.362 28.0845 350.02 27.9664 349.693C27.8469 349.372 27.6629 349.074 27.424 348.814C27.1451 348.514 26.8168 348.256 26.4512 348.049C26.1626 347.882 25.8399 347.735 25.4832 347.606C25.4594 347.597 25.4355 347.589 25.4116 347.58C24.9406 347.419 24.4526 347.303 23.9554 347.235C23.5237 347.173 23.0652 347.138 22.5802 347.13C22.5104 347.129 22.4406 347.128 22.3708 347.128C21.1187 347.128 20.053 347.238 19.1737 347.457C18.8896 347.527 18.6111 347.614 18.3404 347.72C18.0538 347.833 17.7988 347.961 17.5754 348.105C17.4276 348.2 17.2891 348.307 17.1614 348.424C16.6991 348.849 16.468 349.349 16.468 349.925C16.4639 350.225 16.5264 350.522 16.6516 350.799C16.7876 351.088 16.9924 351.344 17.2508 351.55C17.6734 351.894 18.2234 352.202 18.9006 352.475C19.0644 352.541 19.23 352.602 19.3973 352.66C20.3064 352.975 21.3274 353.256 22.4602 353.503C23.5532 353.742 24.6416 353.997 25.7252 354.27C25.7996 354.288 25.8739 354.307 25.9483 354.326C27.1408 354.627 28.3034 354.984 29.4363 355.395C30.2479 355.687 31.0267 356.05 31.7617 356.481C32.0061 356.625 32.2448 356.777 32.4772 356.938C33.3715 357.555 34.087 358.315 34.6236 359.22C34.943 359.767 35.1664 360.357 35.2855 360.968C35.3835 361.464 35.4314 361.966 35.4286 362.469C35.4286 364.636 34.8621 366.377 33.7293 367.693C32.8552 368.698 31.7422 369.505 30.4759 370.053C30.0227 370.253 29.5559 370.427 29.0786 370.572C27.9798 370.904 26.8497 371.14 25.7031 371.278C24.5836 371.414 23.4553 371.48 22.3261 371.477C20.9765 371.481 19.629 371.38 18.2977 371.176C17.9395 371.12 17.5829 371.056 17.2282 370.983C16.2882 370.795 15.3716 370.519 14.4925 370.16C13.9615 369.942 13.4486 369.687 12.9578 369.4C11.7205 368.673 10.7516 367.755 10.0511 366.644C9.6452 365.991 9.35803 365.281 9.20097 364.542C9.06699 363.938 9 363.289 9 362.593V362.161C8.99999 362.119 9.0014 362.078 9.00421 362.036C9.01017 361.944 9.02367 361.869 9.04472 361.811ZM165.157 361.811H171.775C171.764 361.842 171.756 361.874 171.75 361.906C171.743 361.939 171.738 361.975 171.735 362.015C171.732 362.056 171.73 362.098 171.73 362.14V362.511C171.727 362.882 171.78 363.252 171.888 363.61C172.013 364.018 172.226 364.4 172.513 364.732C172.818 365.079 173.189 365.372 173.608 365.596C173.918 365.766 174.265 365.913 174.649 366.037C174.704 366.055 174.76 366.072 174.816 366.089C175.352 366.246 175.902 366.359 176.459 366.428C176.975 366.494 177.521 366.531 178.099 366.54C178.182 366.541 178.265 366.541 178.349 366.541C178.708 366.542 179.068 366.533 179.428 366.514C179.866 366.49 180.274 366.451 180.652 366.398C180.971 366.352 181.288 366.294 181.602 366.222C181.886 366.158 182.166 366.079 182.441 365.986C182.962 365.808 183.394 365.595 183.737 365.349C183.932 365.21 184.106 365.048 184.253 364.866C184.348 364.747 184.43 364.619 184.498 364.485C184.616 364.243 184.692 363.985 184.723 363.721C184.737 363.606 184.743 363.49 184.743 363.374C184.746 363.082 184.699 362.791 184.604 362.513C184.479 362.152 184.257 361.827 183.961 361.565C183.515 361.166 182.927 360.818 182.198 360.519C182.071 360.468 181.943 360.418 181.814 360.372C180.905 360.043 179.884 359.741 178.751 359.467C177.618 359.193 176.455 358.912 175.263 358.624C174.07 358.336 172.908 357.98 171.775 357.555C171.024 357.275 170.299 356.94 169.607 356.552C169.308 356.383 169.017 356.203 168.734 356.012C167.84 355.409 167.124 354.641 166.588 353.709C166.284 353.174 166.069 352.6 165.948 352.007C165.845 351.522 165.79 351.002 165.783 350.447C165.783 350.41 165.783 350.373 165.783 350.336C165.779 349.737 165.845 349.14 165.98 348.554C166.129 347.908 166.387 347.288 166.744 346.717C167.347 345.77 168.182 344.965 169.182 344.366C169.27 344.312 169.359 344.259 169.45 344.208C170.263 343.752 171.13 343.385 172.035 343.114C172.508 342.97 172.988 342.848 173.474 342.748C174.465 342.545 175.47 342.41 176.482 342.342C177.133 342.296 177.785 342.274 178.438 342.275C179.646 342.271 180.852 342.36 182.043 342.541C182.424 342.599 182.802 342.668 183.178 342.748C184.026 342.924 184.852 343.177 185.644 343.505C186.154 343.718 186.645 343.967 187.113 344.249C188.246 344.934 189.133 345.798 189.774 346.84C190.185 347.517 190.464 348.254 190.6 349.019C190.692 349.522 190.738 350.032 190.736 350.542V351.035H184.251V350.706C184.255 350.362 184.196 350.02 184.078 349.693C183.959 349.372 183.775 349.074 183.536 348.814C183.257 348.514 182.929 348.256 182.563 348.049C182.274 347.882 181.952 347.735 181.595 347.606C181.571 347.597 181.547 347.589 181.524 347.58C181.052 347.419 180.564 347.303 180.067 347.235C179.636 347.173 179.177 347.138 178.692 347.13C178.622 347.129 178.552 347.128 178.483 347.128C177.231 347.128 176.165 347.238 175.286 347.457C175.001 347.527 174.723 347.614 174.452 347.72C174.166 347.833 173.911 347.961 173.687 348.105C173.54 348.2 173.401 348.307 173.273 348.424C172.811 348.849 172.58 349.349 172.58 349.925C172.576 350.225 172.638 350.522 172.763 350.799C172.899 351.088 173.104 351.344 173.363 351.55C173.785 351.894 174.335 352.202 175.013 352.475C175.176 352.541 175.342 352.602 175.509 352.66C176.418 352.975 177.439 353.256 178.572 353.503C179.665 353.742 180.754 353.997 181.837 354.27C181.911 354.288 181.986 354.307 182.06 354.326C183.253 354.627 184.415 354.984 185.548 355.395C186.36 355.687 187.139 356.05 187.874 356.481C188.118 356.625 188.357 356.777 188.589 356.938C189.483 357.555 190.199 358.315 190.736 359.22C191.055 359.767 191.278 360.357 191.397 360.968C191.495 361.464 191.543 361.966 191.54 362.469C191.54 364.636 190.974 366.377 189.841 367.693C188.967 368.698 187.854 369.505 186.588 370.053C186.135 370.253 185.668 370.427 185.19 370.572C184.092 370.904 182.962 371.14 181.815 371.278C180.695 371.414 179.567 371.48 178.438 371.477C177.088 371.481 175.741 371.38 174.41 371.176C174.051 371.12 173.695 371.056 173.34 370.983C172.4 370.795 171.483 370.519 170.604 370.16C170.073 369.942 169.56 369.687 169.07 369.4C167.832 368.673 166.863 367.755 166.163 366.644C165.757 365.991 165.47 365.281 165.313 364.542C165.179 363.938 165.112 363.289 165.112 362.593V362.161C165.112 362.119 165.113 362.078 165.116 362.036C165.122 361.944 165.136 361.869 165.157 361.811ZM352.616 361.811H359.234C359.223 361.842 359.215 361.874 359.209 361.906C359.202 361.939 359.198 361.975 359.194 362.015C359.191 362.056 359.19 362.098 359.19 362.14V362.511C359.186 362.882 359.239 363.252 359.347 363.61C359.473 364.018 359.685 364.4 359.972 364.732C360.277 365.079 360.648 365.372 361.067 365.596C361.377 365.766 361.724 365.913 362.108 366.037C362.164 366.055 362.219 366.072 362.275 366.089C362.811 366.246 363.361 366.359 363.919 366.428C364.434 366.494 364.981 366.531 365.559 366.54C365.642 366.541 365.725 366.541 365.808 366.541C366.168 366.542 366.528 366.533 366.887 366.514C367.326 366.49 367.734 366.451 368.111 366.398C368.431 366.352 368.748 366.294 369.061 366.222C369.345 366.158 369.625 366.079 369.9 365.986C370.421 365.808 370.854 365.595 371.197 365.349C371.392 365.21 371.565 365.048 371.712 364.866C371.808 364.747 371.89 364.619 371.957 364.485C372.076 364.243 372.152 363.985 372.182 363.721C372.196 363.606 372.203 363.49 372.203 363.374C372.206 363.082 372.159 362.791 372.064 362.513C371.938 362.152 371.717 361.827 371.42 361.565C370.974 361.166 370.387 360.818 369.657 360.519C369.531 360.468 369.403 360.418 369.274 360.372C368.364 360.043 367.343 359.741 366.21 359.467C365.078 359.193 363.915 358.912 362.722 358.624C361.53 358.336 360.367 357.98 359.234 357.555C358.483 357.275 357.758 356.94 357.067 356.552C356.768 356.383 356.477 356.203 356.194 356.012C355.299 355.409 354.584 354.641 354.047 353.709C353.744 353.174 353.528 352.6 353.407 352.007C353.304 351.522 353.249 351.002 353.243 350.447C353.242 350.41 353.242 350.373 353.242 350.336C353.238 349.737 353.304 349.14 353.439 348.554C353.588 347.908 353.846 347.288 354.204 346.717C354.807 345.77 355.641 344.965 356.641 344.366C356.729 344.312 356.819 344.259 356.909 344.208C357.722 343.752 358.59 343.385 359.495 343.114C359.968 342.97 360.448 342.848 360.934 342.748C361.924 342.545 362.93 342.41 363.942 342.342C364.593 342.296 365.245 342.274 365.897 342.275C367.105 342.271 368.311 342.36 369.503 342.541C369.883 342.599 370.262 342.668 370.638 342.748C371.485 342.924 372.311 343.177 373.103 343.505C373.613 343.718 374.105 343.967 374.573 344.249C375.706 344.934 376.593 345.798 377.234 346.84C377.644 347.517 377.924 348.254 378.06 349.019C378.152 349.522 378.197 350.032 378.195 350.542V351.035H371.711V350.706C371.714 350.362 371.656 350.02 371.538 349.693C371.418 349.372 371.234 349.074 370.995 348.814C370.716 348.514 370.388 348.256 370.023 348.049C369.734 347.882 369.411 347.735 369.055 347.606C369.031 347.597 369.007 347.589 368.983 347.58C368.512 347.419 368.024 347.303 367.527 347.235C367.095 347.173 366.637 347.138 366.152 347.13C366.082 347.129 366.012 347.128 365.942 347.128C364.69 347.128 363.624 347.238 362.745 347.457C362.461 347.527 362.182 347.614 361.912 347.72C361.625 347.833 361.37 347.961 361.147 348.105C360.999 348.2 360.86 348.307 360.733 348.424C360.27 348.849 360.039 349.349 360.039 349.925C360.035 350.225 360.098 350.522 360.223 350.799C360.359 351.088 360.564 351.344 360.822 351.55C361.245 351.894 361.795 352.202 362.472 352.475C362.636 352.541 362.801 352.602 362.969 352.66C363.878 352.975 364.899 353.256 366.032 353.503C367.124 353.742 368.213 353.997 369.297 354.27C369.371 354.288 369.445 354.307 369.52 354.326C370.712 354.627 371.875 354.984 373.008 355.395C373.819 355.687 374.598 356.05 375.333 356.481C375.577 356.625 375.816 356.777 376.048 356.938C376.943 357.555 377.658 358.315 378.195 359.22C378.514 359.767 378.738 360.357 378.857 360.968C378.955 361.464 379.003 361.966 379 362.469C379 364.636 378.433 366.377 377.301 367.693C376.426 368.698 375.313 369.505 374.047 370.053C373.594 370.253 373.127 370.427 372.65 370.572C371.551 370.904 370.421 371.14 369.274 371.278C368.155 371.414 367.027 371.48 365.897 371.477C364.548 371.481 363.2 371.38 361.869 371.176C361.511 371.12 361.154 371.056 360.8 370.983C359.86 370.795 358.943 370.519 358.064 370.16C357.533 369.942 357.02 369.687 356.529 369.4C355.292 368.673 354.323 367.755 353.622 366.644C353.217 365.991 352.929 365.281 352.772 364.542C352.638 363.938 352.571 363.289 352.571 362.593V362.161C352.571 362.119 352.573 362.078 352.576 362.036C352.581 361.944 352.595 361.869 352.616 361.811ZM196.683 360.331V342.768H203.391V360.166C203.391 362.195 203.972 363.751 205.135 364.835C206.205 365.831 207.705 366.37 209.634 366.449C209.804 366.456 209.973 366.459 210.143 366.459C210.808 366.463 211.472 366.405 212.124 366.284C213.366 366.046 214.383 365.562 215.174 364.835C215.853 364.2 216.344 363.416 216.602 362.558C216.778 362.006 216.886 361.398 216.924 360.736C216.935 360.546 216.941 360.356 216.94 360.166V342.768H223.648V360.331C223.648 362.798 223.112 364.862 222.038 366.521C220.965 368.18 219.422 369.42 217.41 370.243C215.398 371.066 212.975 371.477 210.143 371.477C209.027 371.481 207.912 371.408 206.807 371.257C205.603 371.088 204.492 370.821 203.476 370.456C203.289 370.389 203.105 370.318 202.922 370.243C200.909 369.42 199.366 368.18 198.293 366.521C197.703 365.594 197.279 364.585 197.037 363.534C196.832 362.685 196.716 361.77 196.689 360.787C196.685 360.635 196.683 360.483 196.683 360.331ZM79.7892 370.983H73.1262V342.768H95.7537V347.786H79.7892V354.778H94.0544V359.755H79.7892V370.983ZM269.619 370.983H262.956V342.768H285.583V347.786H269.619V354.778H283.884V359.755H269.619V370.983ZM236.974 370.983H230.311V342.768H247.125C248.971 342.768 250.564 343.014 251.905 343.505C252.205 343.615 252.498 343.739 252.783 343.879C254.288 344.619 255.413 345.654 256.159 346.984C256.681 347.93 257.022 348.952 257.167 350.004C257.241 350.523 257.278 351.046 257.276 351.57C257.283 352.497 257.156 353.422 256.898 354.318C256.68 355.063 256.356 355.778 255.935 356.444C255.063 357.817 253.763 358.917 252.203 359.602C252.15 359.626 252.097 359.65 252.044 359.673L258.305 370.983H250.926L245.516 360.701H236.974V370.983ZM327.976 370.983H321.313V342.768H338.127C339.972 342.768 341.566 343.014 342.907 343.505C343.207 343.615 343.5 343.739 343.784 343.879C345.29 344.619 346.415 345.654 347.16 346.984C347.683 347.93 348.024 348.952 348.168 350.004C348.243 350.523 348.28 351.046 348.278 351.57C348.285 352.497 348.158 353.422 347.9 354.318C347.682 355.063 347.358 355.778 346.937 356.444C346.065 357.817 344.765 358.917 343.205 359.602C343.152 359.626 343.099 359.65 343.046 359.673L349.307 370.983H341.928L336.517 360.701H327.976V370.983ZM144.318 370.983H137.61V359.631L125.715 342.768H133.451L141.053 354.12H141.277L148.834 342.768H156.123L144.318 359.631V370.983ZM44.5064 370.983H37.6198L49.4254 342.768H57.6536L69.4593 370.983H62.2596L60.0684 365.431H46.6976L44.5064 370.983ZM115.206 370.983H108.498V347.91H98.6604V342.768H125.089V347.91H115.206V370.983ZM236.974 347.745V355.848H246.231C246.67 355.851 247.108 355.804 247.535 355.708C248.238 355.553 248.874 355.208 249.361 354.717C249.825 354.24 250.151 353.663 250.309 353.04C250.414 352.651 250.47 352.228 250.478 351.769C250.479 351.73 250.479 351.691 250.479 351.652C250.481 351.319 250.451 350.985 250.388 350.656C250.311 350.261 250.185 349.9 250.009 349.574C250.002 349.56 249.995 349.547 249.987 349.534C249.659 348.945 249.182 348.499 248.556 348.197C247.93 347.896 247.155 347.745 246.231 347.745H236.974ZM327.976 347.745V355.848H337.233C337.672 355.851 338.11 355.804 338.537 355.708C339.24 355.553 339.876 355.208 340.363 354.717C340.827 354.24 341.153 353.663 341.311 353.04C341.416 352.651 341.472 352.228 341.48 351.769C341.481 351.73 341.481 351.691 341.481 351.652C341.483 351.319 341.452 350.985 341.39 350.656C341.313 350.261 341.187 349.9 341.011 349.574C341.004 349.56 340.997 349.547 340.989 349.534C340.661 348.945 340.184 348.499 339.558 348.197C338.932 347.896 338.157 347.745 337.233 347.745H327.976ZM51.3483 353.544L48.6205 360.495H58.1455L55.4177 353.544C55.2984 353.243 55.1569 352.879 54.9931 352.455C54.829 352.029 54.6575 351.556 54.4786 351.035C54.2997 350.514 54.1284 350 53.9646 349.493C53.8005 348.986 53.6438 348.526 53.4948 348.115H53.2265C53.1241 348.473 53.0004 348.874 52.8556 349.316C52.7868 349.526 52.7166 349.736 52.6451 349.946C52.4066 350.645 52.1681 351.317 51.9296 351.961C51.8727 352.115 51.8159 352.268 51.7592 352.422C51.5972 352.862 51.4602 353.236 51.3483 353.544Z" fill="#00FFFF" stroke="#0FC2C2" stroke-width="0.944882" stroke-linecap="round"/>
</g>
<path id="bg" d="M192.937 0.686697C194.003 0.683113 194.003 0.683113 195.091 0.679456C208.062 0.674801 220.345 1.93431 233 4.62217C233.698 4.76348 234.396 4.9048 235.115 5.05039C265.062 11.1999 292.722 24.6556 315 43.8629C316.329 44.8937 317.663 45.9205 319 46.9428C351.932 73.3221 370.797 114.574 373.855 153.904C377.011 201.904 357.769 244.086 323.559 279.785C322 281.132 322 281.132 320 281.132C320 281.734 320 282.337 320 282.957C317.576 285.314 314.733 287.295 312 289.345C311.496 289.724 310.992 290.103 310.473 290.493C302.041 296.787 293.367 302.517 284 307.597C283.427 307.908 282.855 308.22 282.265 308.541C242.704 329.7 193.689 334.694 149.462 324.622C119.725 317.385 93.3298 304.177 71 284.782C70.4391 284.3 69.8781 283.818 69.3002 283.321C35.055 253.716 15.1935 212.846 13.875 169.77C12.9916 127.414 28.9577 85.7647 61 54.8138C62.1296 53.6006 63.2547 52.3839 64.375 51.1635C90.9719 23.5115 130.566 7.82136 169.648 2.22176C171.392 1.9717 173.13 1.69349 174.865 1.40031C180.847 0.582699 186.899 0.706031 192.937 0.686697Z" fill="#00FC00"/>
<path id="border" d="M192.937 0.686697C194.003 0.683113 194.003 0.683113 195.091 0.679456C208.062 0.674801 220.345 1.93431 233 4.62217C233.698 4.76348 234.396 4.9048 235.115 5.05039C265.062 11.1999 292.722 24.6556 315 43.8629C316.329 44.8937 317.663 45.9205 319 46.9428C351.932 73.3221 370.797 114.574 373.855 153.904C377.011 201.904 357.769 244.086 323.559 279.785C321.612 281.467 322.424 280.601 320 282.957C317.576 285.314 314.733 287.295 312 289.345C311.496 289.724 310.992 290.103 310.473 290.493C302.041 296.787 293.367 302.517 284 307.597C283.427 307.908 282.855 308.22 282.265 308.541C242.704 329.7 193.689 334.694 149.462 324.622C119.725 317.385 93.3298 304.177 71 284.782C70.4391 284.3 69.8781 283.818 69.3002 283.321C35.055 253.716 15.1935 212.846 13.875 169.77C12.9916 127.414 28.9577 85.7647 61 54.8138C62.1296 53.6006 63.2547 52.3839 64.375 51.1635C90.9719 23.5115 130.566 7.82136 169.648 2.22176C171.392 1.9717 173.13 1.69349 174.865 1.40031C180.847 0.582699 186.899 0.706031 192.937 0.686697ZM89 42.0377C88.4706 42.4294 87.9413 42.8212 87.396 43.2248C51.6072 69.8046 28.6705 107.255 23.5158 149.233C20.525 177.706 25.9722 207.207 40 232.766C40.3419 233.397 40.6838 234.028 41.0361 234.679C61.5037 272.232 96.9941 300.167 140.5 313.643C158.451 319.01 176.134 320.781 194.937 320.772C195.736 320.772 196.535 320.773 197.359 320.773C236.614 320.67 275.45 307.729 305 283.87C305.986 283.081 306.972 282.291 307.988 281.478C328.106 265.155 342.562 245.737 352.812 223.07C353.281 222.036 353.75 221.003 354.233 219.938C366.038 193.128 367.806 163.327 362 135.12C361.861 134.441 361.722 133.762 361.578 133.062C353.212 93.8627 326.478 58.6294 290.52 36.1844C287.073 34.0877 283.557 32.1096 280 30.1743C278.888 29.5661 277.775 28.9579 276.629 28.3313C260.163 19.6818 241.968 14.0976 223.253 11.3696C221.744 11.1289 220.242 10.8477 218.75 10.5278C211.074 8.8965 203.476 8.86071 195.625 8.89986C194.564 8.90281 194.564 8.90281 193.481 8.90582C155.916 9.07309 118.291 20.1576 89 42.0377Z" fill="#132515"/>
<g id="curve-lines">
<path id="Vector_2" d="M175.438 149.608C177.313 150.835 179.169 152.09 181 153.372C182.338 154.295 182.338 154.295 183.703 155.236C190.389 160.196 190.389 160.196 191.062 164.323C191 167.061 191 167.061 189.559 168.401C185.822 170.442 182.343 170.211 178.062 170.255C170.531 170.257 170.531 170.257 164 173.449C160.388 177.813 159.345 181.176 159.617 186.638C160.845 194.092 165.714 201.485 172.258 206.052C180.351 210.752 188.435 212.866 197.969 213.32C200 213.602 200 213.602 202 215.427C202.557 220.204 202.557 220.204 200.789 222.421C197.107 224.93 192.357 224.09 188 223.64C174.076 220.637 161.361 213.912 153.562 202.708C148.777 194.691 145.89 185.744 148.691 176.689C152.072 169.086 157.092 164.385 164.949 160.533C167 159.76 167 159.76 170 159.76C167.446 156.992 164.644 155.955 161 154.627C159.948 154.239 158.896 153.85 157.812 153.45C147.937 149.971 135.03 150.067 125.062 153.315C109.782 159.66 99.3062 169.888 89 181.662C84.702 186.556 80.3738 191.425 76 196.263C75.5604 196.753 75.1209 197.243 74.668 197.749C67.8876 205.237 55.0081 217.448 43.8125 218.45C41 218.165 41 218.165 39 216.34C38.3125 213.83 38.3125 213.83 39 210.864C41.7213 208.655 44.8878 207.098 48 205.389C58.4063 198.912 65.9017 192.001 73.457 182.884C79.8818 175.145 86.7804 167.801 94 160.673C94.5375 160.111 95.0751 159.55 95.6289 158.972C116.712 137.996 149.616 134.61 175.438 149.608Z" fill="#142515"/>
<path id="Vector_3" d="M78.875 239.143C83.0068 240.364 84.6192 242.587 87 245.713C109.496 273.341 140.44 287.201 176.899 293.496C211.878 298.144 249.121 289.523 278.043 271.29C284.386 266.954 290.757 262.357 296.211 257.099C296.801 256.598 297.392 256.096 298 255.58C301.392 255.727 302.583 256.112 305 258.318C305.441 260.874 305.441 260.874 305 263.793C301.588 267.66 297.215 270.708 293 273.832C292.449 274.247 291.898 274.663 291.33 275.092C259.403 298.874 217.927 307.901 177.333 304.645C172.801 304.103 168.424 303.177 164 302.121C162.759 301.857 161.517 301.592 160.238 301.319C132.106 295.013 108.141 281.745 88 262.881C87.3967 262.361 86.7934 261.841 86.1719 261.305C73.4859 250.214 73.4859 250.214 72.625 243.553C72.7488 242.703 72.8725 241.854 73 240.979C76 239.154 76 239.154 78.875 239.143Z" fill="#142515"/>
<path id="Vector_4" d="M201.5 24.3567C202.758 24.3442 204.017 24.3317 205.313 24.3188C206.499 24.3243 207.685 24.3297 208.906 24.3353C209.961 24.3384 211.017 24.3415 212.104 24.3447C215.709 24.7856 218.409 25.9845 221 28.3492C221.188 31.0299 221.188 31.0299 221 33.8247C219 35.6498 219 35.6498 216.14 35.7991C214.928 35.7663 213.715 35.7335 212.465 35.6997C211.096 35.6733 209.728 35.6481 208.359 35.6238C207.638 35.6086 206.916 35.5934 206.173 35.5777C185.692 35.1933 165.077 36.449 146 43.863C145.212 44.1663 144.424 44.4697 143.612 44.7823C126.447 51.5216 111.428 60.2395 98.0001 72.1528C96.7935 73.1692 96.7935 73.1692 95.5626 74.2061C69.7235 96.6072 56.9334 128.134 55.4415 160.195C54.9258 162.885 54.0596 164.187 52.0001 166.148C49.2292 166.59 47.7514 166.589 45.3673 165.189C43.27 162.46 43.5558 159.664 43.6251 156.452C43.6425 155.413 43.6425 155.413 43.6602 154.354C44.2902 133.909 51.9676 113.554 63.0001 95.8797C63.3629 95.2832 63.7258 94.6866 64.0997 94.0719C69.935 84.5787 76.9726 76.7926 85.3707 69.0902C86.8214 67.7544 88.243 66.3923 89.6602 65.0269C118.973 37.1456 159.936 24.5697 201.5 24.3567Z" fill="#142615"/>
<path id="Vector_5" d="M93.4375 205.389C97.934 206.99 99.6627 210.172 101.57 214.087C102.09 215.294 102.608 216.501 103.125 217.708C112.162 237.463 131.413 251.401 152.527 259.829C164.042 263.896 175.653 266.595 188 267.444C188.66 267.49 189.32 267.536 190 267.584C217.459 269.236 246.812 261.052 267.715 244.508C271.869 241.092 275.848 237.543 279.664 233.81C282 231.853 282 231.853 285.188 231.853C288 232.766 288 232.766 290 235.504C290 239.515 287.81 241.846 284.98 244.679C270.471 257.685 252.932 267.299 233.75 273.261C233.054 273.479 232.359 273.697 231.642 273.922C220.429 277.219 209.341 277.773 197.625 277.71C196.318 277.717 195.011 277.724 193.664 277.732C181.197 277.709 169.373 276.544 157.562 272.805C156.668 272.525 155.773 272.246 154.851 271.958C126.437 262.77 104.834 245.239 91.6992 220.571C87.3996 212.29 87.3996 212.29 88 208.126C89.636 205.769 90.3631 205.389 93.4375 205.389Z" fill="#142515"/>
<path id="Vector_6" d="M184 58.4642C186 60.2894 186 60.2894 186.125 62.6849C186.084 63.4001 186.043 64.1153 186 64.8522C180.75 67.6045 175.543 69.2407 169.75 70.7269C150.095 75.8507 134.311 84.4307 120 97.7049C119.094 98.5331 118.188 99.3612 117.254 100.214C111.062 106.132 106.377 112.482 102 119.607C101.327 120.665 101.327 120.665 100.641 121.746C97.0348 127.814 94.7366 134.357 92.322 140.878C92.0353 141.652 91.7485 142.426 91.4531 143.223C91.1969 143.925 90.9407 144.627 90.6768 145.35C90 146.984 90 146.984 89 147.896C86.0625 148.068 86.0625 148.068 83 147.896C80.6133 145.718 80.6537 145.127 80.5625 142.136C81.11 122.707 100.232 99.753 115 86.754C123.313 80.044 132.346 74.3973 142 69.4151C142.94 68.9293 143.879 68.4434 144.848 67.9429C156.178 62.4389 170.883 56.2412 184 58.4642Z" fill="#142515"/>
<path id="Vector_7" d="M131 206.301C133.414 208.536 133.414 208.536 135.625 211.492C136.727 212.937 136.727 212.937 137.852 214.411C138.561 215.349 139.27 216.286 140 217.252C149.801 229.358 166.629 236.352 182.582 238.864C200.615 241.027 219.091 239.437 234.957 230.866C237.464 229.838 239.279 229.806 242 230.028C243.875 231.112 243.875 231.112 245 232.766C245 235.749 244.36 236.979 242.125 239.154C237.639 241.774 232.899 243.655 228 245.542C227.317 245.817 226.634 246.092 225.93 246.376C206.594 253.685 180.996 251.545 162.059 244.469C146.216 238.182 131.85 228.262 123 214.514C121.655 209.594 121.655 209.594 123.062 207.328C125.922 205.813 127.737 205.901 131 206.301Z" fill="#142515"/>
<path id="Vector_8" d="M276.438 146.927C280 147.896 280 147.896 281.875 150.634C288.456 168.588 283.904 190.41 275.258 206.914C271.383 213.924 266.544 221.204 260 226.378C256.875 226.72 256.875 226.72 254 226.378C252 224.553 252 224.553 251.582 222.057C252.117 218.246 254.031 216.189 256.688 213.374C263.078 206.204 267.247 198.79 270 189.875C270.353 188.827 270.706 187.778 271.07 186.699C272.471 181.517 272.252 176.3 272.188 170.996C272.187 169.979 272.186 168.962 272.186 167.914C272.16 163.521 271.995 159.5 271 155.197C270.812 151.832 270.812 151.832 271 148.809C273 146.984 273 146.984 276.438 146.927Z" fill="#142615"/>
<path id="Vector_9" d="M192 94.0545C194 95.8796 194 95.8796 194.438 98.5603C194 101.355 194 101.355 191.887 102.82C188.687 104.231 185.873 104.793 182.375 105.348C167.352 108.121 151.65 115.896 142.375 127.306C140 129.645 140 129.645 136.813 130.101C134 129.645 134 129.645 132 127.82C131.493 124.439 131.658 122.83 133.695 119.935C147.695 106.214 170.265 90.9473 192 94.0545Z" fill="#142415"/>
<path id="Vector_10" d="M334 206.073C337 206.301 337 206.301 339 208.126C339.688 214.218 338.098 218.244 335.125 223.64C334.726 224.386 334.327 225.132 333.916 225.9C323.096 245.686 323.096 245.686 317 250.105C314.121 250.499 312.633 250.451 310.125 249.078C309 247.367 309 247.367 309.113 244.989C310.285 240.895 312.526 237.924 315.063 234.42C319.743 227.742 323.363 220.992 326.537 213.619C326.836 212.926 327.134 212.234 327.441 211.52C327.696 210.908 327.951 210.295 328.213 209.664C329.656 206.843 330.596 206.332 334 206.073Z" fill="#142515"/>
<path id="Vector_11" d="M310 184.171C313 184.399 313 184.399 315 186.224C316.103 192.802 314.255 198.603 311.75 204.704C311.45 205.488 311.149 206.271 310.84 207.078C308.97 211.797 306.962 216.374 303 219.99C300.062 220.161 300.062 220.161 297 219.99C295 218.165 295 218.165 294.703 215.648C295.039 212.304 296.046 210.291 297.75 207.328C300.618 201.976 302.327 196.788 303.706 190.975C305.266 184.531 305.266 184.531 310 184.171Z" fill="#142516"/>
<path id="Vector_12" d="M209.25 56.4109C210.014 56.392 210.779 56.3732 211.566 56.3538C216.239 56.3244 219.158 56.6862 223 59.3767C224 60.2893 224 60.2893 224.188 62.5137C224 64.8522 224 64.8522 222 66.6773C215.402 67.2846 208.529 66.7105 202 65.7647C200 63.9396 200 63.9396 199.812 60.6885C200.155 54.9658 204.01 56.4425 209.25 56.4109Z" fill="#152516"/>
<path id="Vector_13" d="M315 150.634C319.045 154.325 318.159 160.96 318.328 165.934C317.925 168.436 317.195 169.213 315 170.711C312.285 171.082 310.737 171.141 308.398 169.777C306.234 166.985 306.306 163.983 306.125 160.673C306.066 160.011 306.006 159.35 305.945 158.669C305.635 153.879 305.635 153.879 307.301 151.565C309.913 150.134 312.029 150.346 315 150.634Z" fill="#132915"/>
<path id="Vector_14" d="M243 30.1745C245.77 31.2387 248.392 32.4641 251 33.8248C251.357 38.7068 251.357 38.7068 249.938 41.0684C246.042 43.018 241.786 41.3323 237.75 40.2699C235 39.3003 235 39.3003 232 37.4751C231.605 34.6498 231.555 32.7859 233 30.2316C236.331 28.6165 239.511 29.318 243 30.1745Z" fill="#152816"/>
<path id="Vector_15" d="M49.9375 171.281C53 171.623 53 171.623 54.6758 173.06C56.4838 176.083 56.3277 178.411 56.25 181.833C56.2345 182.975 56.2191 184.117 56.2031 185.294C56 188.05 56 188.05 55 188.962C51.625 189.248 51.625 189.248 48 188.962C45.5121 186.827 45.0286 185.54 44.6367 182.425C44.6535 181.382 44.6702 180.34 44.6875 179.266C44.6914 178.219 44.6952 177.172 44.6992 176.094C45.1159 172.43 45.947 171.746 49.9375 171.281Z" fill="#152416"/>
<path id="Vector_16" d="M261.812 122.059C265 122.344 265 122.344 267.187 123.884C270.723 128.001 272.657 130.641 272 136.033C270 137.858 270 137.858 267.156 138.268C264 137.858 264 137.858 261.594 135.823C260.903 134.932 260.212 134.042 259.5 133.124C258.788 132.245 258.077 131.367 257.344 130.461C256 127.82 256 127.82 256.719 125.264C258.554 122.39 258.554 122.39 261.812 122.059Z" fill="#152616"/>
</g>
</g>
</svg>
